<?xml version="1.0" encoding="iso-8859-1"?>
<!-- Generator: Adobe Illustrator 16.0.0, SVG Export Plug-In . SVG Version: 6.00 Build 0)  -->
<!DOCTYPE svg PUBLIC "-//W3C//DTD SVG 1.1//EN" "http://www.w3.org/Graphics/SVG/1.1/DTD/svg11.dtd">
<svg version="1.1" id="Capa_1" xmlns="http://www.w3.org/2000/svg" xmlns:xlink="http://www.w3.org/1999/xlink" x="0px" y="0px"
	 width="246.471px" height="246.471px" viewBox="0 0 246.471 246.471" style="enable-background:new 0 0 246.471 246.471;"
	 xml:space="preserve">
<g>
	<g>
		<g id="Layer_5_10_">
			<g>
				<path d="M246.301,67.272c0.111-0.932,0.17-1.869,0.17-2.813c0-29.444-55.176-53.314-123.235-53.314
					C55.174,11.145,0,35.015,0,64.459v120.372h0.172c3.389,28.136,57.189,50.495,123.064,50.495
					c65.875,0,119.674-22.359,123.063-50.495h0.002v-0.006c0.111-0.932,0.17-1.87,0.17-2.812c0-0.944-0.059-1.881-0.17-2.813V67.272
					L246.301,67.272z M123.235,112.803c-59.454,0-107.649-19.654-107.649-43.897c0-24.245,48.195-43.898,107.649-43.898
					c59.453,0,107.65,19.653,107.65,43.898C230.885,93.15,182.688,112.803,123.235,112.803z"/>
				<g>
					<path d="M90.427,66.826c0,14.794,11.211,26.788,0,26.788c-11.211,0-26.549-11.993-26.549-26.788s15.338-26.788,26.549-26.788
						C101.639,40.039,90.427,52.032,90.427,66.826z"/>
					<path d="M122.914,66.826c0,12.63,9.57,22.87,0,22.87c-9.572,0-22.667-10.239-22.667-22.87c0-12.631,13.095-22.87,22.667-22.87
						C132.484,43.957,122.914,54.196,122.914,66.826z"/>
					<path d="M150.665,66.826c0,9.983,7.565,18.076,0,18.076s-17.915-8.093-17.915-18.076S143.1,48.75,150.665,48.75
						C158.23,48.751,150.665,56.843,150.665,66.826z"/>
					<path d="M179.582,66.826c0,8.935,6.771,16.179,0,16.179c-6.77,0-16.034-7.244-16.034-16.179s9.266-16.179,16.034-16.179
						C186.354,50.647,179.582,57.891,179.582,66.826z"/>
				</g>
			</g>
		</g>
	</g>
</g>
<g>
</g>
<g>
</g>
<g>
</g>
<g>
</g>
<g>
</g>
<g>
</g>
<g>
</g>
<g>
</g>
<g>
</g>
<g>
</g>
<g>
</g>
<g>
</g>
<g>
</g>
<g>
</g>
<g>
</g>
</svg>
