<?xml version="1.0" encoding="iso-8859-1"?>
<!-- Generator: Adobe Illustrator 18.0.0, SVG Export Plug-In . SVG Version: 6.00 Build 0)  -->
<!DOCTYPE svg PUBLIC "-//W3C//DTD SVG 1.1//EN" "http://www.w3.org/Graphics/SVG/1.1/DTD/svg11.dtd">
<svg version="1.1" id="Capa_1" xmlns="http://www.w3.org/2000/svg" xmlns:xlink="http://www.w3.org/1999/xlink" x="0px" y="0px"
	 viewBox="0 0 58 58" style="enable-background:new 0 0 58 58;" xml:space="preserve">
<g>
	<path d="M57,50.5h-2v-5.639l-2.362,1.743c-1.339,1.223-3.072,1.896-4.888,1.896c-2.664,0-4.99-1.448-6.25-3.593
		c-1.26,2.146-3.586,3.593-6.25,3.593s-4.99-1.448-6.25-3.593c-1.26,2.146-3.586,3.593-6.25,3.593s-4.99-1.448-6.25-3.593
		c-1.26,2.146-3.586,3.593-6.25,3.593c-1.815,0-3.549-0.673-4.888-1.896L3,44.861V50.5H1c-0.553,0-1,0.447-1,1s0.447,1,1,1h3h50h3
		c0.553,0,1-0.447,1-1S57.553,50.5,57,50.5z"/>
	<path d="M53,53.5H5c-0.553,0-1,0.447-1,1s0.447,1,1,1h48c0.553,0,1-0.447,1-1S53.553,53.5,53,53.5z"/>
	<path d="M16.293,7.207C16.488,7.402,16.744,7.5,17,7.5s0.512-0.098,0.707-0.293L18.5,6.414l0.793,0.793
		C19.488,7.402,19.744,7.5,20,7.5s0.512-0.098,0.707-0.293c0.391-0.391,0.391-1.023,0-1.414L19.914,5l0.793-0.793
		c0.391-0.391,0.391-1.023,0-1.414s-1.023-0.391-1.414,0L18.5,3.586l-0.793-0.793c-0.391-0.391-1.023-0.391-1.414,0
		s-0.391,1.023,0,1.414L17.086,5l-0.793,0.793C15.902,6.184,15.902,6.816,16.293,7.207z"/>
	<path d="M23.293,7.207C23.488,7.402,23.744,7.5,24,7.5s0.512-0.098,0.707-0.293L25.5,6.414l0.793,0.793
		C26.488,7.402,26.744,7.5,27,7.5s0.512-0.098,0.707-0.293c0.391-0.391,0.391-1.023,0-1.414L26.914,5l0.793-0.793
		c0.391-0.391,0.391-1.023,0-1.414s-1.023-0.391-1.414,0L25.5,3.586l-0.793-0.793c-0.391-0.391-1.023-0.391-1.414,0
		s-0.391,1.023,0,1.414L24.086,5l-0.793,0.793C22.902,6.184,22.902,6.816,23.293,7.207z"/>
	<path d="M30.293,7.207C30.488,7.402,30.744,7.5,31,7.5s0.512-0.098,0.707-0.293L32.5,6.414l0.793,0.793
		C33.488,7.402,33.744,7.5,34,7.5s0.512-0.098,0.707-0.293c0.391-0.391,0.391-1.023,0-1.414L33.914,5l0.793-0.793
		c0.391-0.391,0.391-1.023,0-1.414s-1.023-0.391-1.414,0L32.5,3.586l-0.793-0.793c-0.391-0.391-1.023-0.391-1.414,0
		s-0.391,1.023,0,1.414L31.086,5l-0.793,0.793C29.902,6.184,29.902,6.816,30.293,7.207z"/>
	<path d="M37.293,7.207C37.488,7.402,37.744,7.5,38,7.5s0.512-0.098,0.707-0.293L39.5,6.414l0.793,0.793
		C40.488,7.402,40.744,7.5,41,7.5s0.512-0.098,0.707-0.293c0.391-0.391,0.391-1.023,0-1.414L40.914,5l0.793-0.793
		c0.391-0.391,0.391-1.023,0-1.414s-1.023-0.391-1.414,0L39.5,3.586l-0.793-0.793c-0.391-0.391-1.023-0.391-1.414,0
		s-0.391,1.023,0,1.414L38.086,5l-0.793,0.793C36.902,6.184,36.902,6.816,37.293,7.207z"/>
	<path d="M6.681,45.099c0.973,0.904,2.24,1.401,3.569,1.401c2.895,0,5.25-2.355,5.25-5.25c0-0.553,0.447-1,1-1s1,0.447,1,1
		c0,2.895,2.355,5.25,5.25,5.25S28,44.145,28,41.25c0-0.553,0.447-1,1-1s1,0.447,1,1c0,2.895,2.355,5.25,5.25,5.25
		s5.25-2.355,5.25-5.25c0-0.553,0.447-1,1-1s1,0.447,1,1c0,2.895,2.355,5.25,5.25,5.25c1.329,0,2.597-0.497,3.569-1.401
		c0.027-0.025,0.057-0.049,0.087-0.071L55,42.375V39.5c0-1.654-1.346-3-3-3h-1v-11c0-1.654-1.346-3-3-3h-1v-1v-2.834v-4.332V11.5
		c0-1.654-1.346-3-3-3h-4.475h-0.051H29.025h-0.051H18.525h-0.051H14c-1.654,0-3,1.346-3,3v2.834v4.332V21.5v1h-1
		c-1.654,0-3,1.346-3,3v11H6c-1.654,0-3,1.346-3,3v2.875l3.594,2.652C6.624,45.05,6.653,45.073,6.681,45.099z M18.5,12.609
		c1.108,1.742,3.046,2.891,5.25,2.891s4.142-1.149,5.25-2.891c1.108,1.742,3.046,2.891,5.25,2.891s4.142-1.149,5.25-2.891
		c1.108,1.742,3.046,2.891,5.25,2.891c0.081,0,0.167-0.013,0.25-0.017v2.033c-0.083-0.004-0.169-0.017-0.25-0.017
		c-2.204,0-4.142,1.149-5.25,2.891c-1.108-1.742-3.046-2.891-5.25-2.891s-4.142,1.149-5.25,2.891
		c-1.108-1.742-3.046-2.891-5.25-2.891s-4.142,1.149-5.25,2.891c-1.108-1.742-3.046-2.891-5.25-2.891
		c-0.081,0-0.167,0.013-0.25,0.017v-2.033c0.083,0.004,0.169,0.017,0.25,0.017C15.454,15.5,17.392,14.351,18.5,12.609z M44,27.5v6
		c0,0.553-0.447,1-1,1s-1-0.447-1-1v-6c0-0.553,0.447-1,1-1S44,26.947,44,27.5z M36,27.5v6c0,0.553-0.447,1-1,1s-1-0.447-1-1v-6
		c0-0.553,0.447-1,1-1S36,26.947,36,27.5z M32,27.5v6c0,0.553-0.447,1-1,1s-1-0.447-1-1v-6c0-0.553,0.447-1,1-1S32,26.947,32,27.5z
		 M28,27.5v6c0,0.553-0.447,1-1,1s-1-0.447-1-1v-6c0-0.553,0.447-1,1-1S28,26.947,28,27.5z M24,27.5v6c0,0.553-0.447,1-1,1
		s-1-0.447-1-1v-6c0-0.553,0.447-1,1-1S24,26.947,24,27.5z M14,27.5c0-0.553,0.447-1,1-1s1,0.447,1,1v6c0,0.553-0.447,1-1,1
		s-1-0.447-1-1V27.5z M18,27.5c0-0.553,0.447-1,1-1s1,0.447,1,1v6c0,0.553-0.447,1-1,1s-1-0.447-1-1V27.5z M38,27.5
		c0-0.553,0.447-1,1-1s1,0.447,1,1v6c0,0.553-0.447,1-1,1s-1-0.447-1-1V27.5z M48,27.5v6c0,0.553-0.447,1-1,1s-1-0.447-1-1v-6
		c0-0.553,0.447-1,1-1S48,26.947,48,27.5z M10,27.5c0-0.553,0.447-1,1-1s1,0.447,1,1v6c0,0.553-0.447,1-1,1s-1-0.447-1-1V27.5z"/>
</g>
<g>
</g>
<g>
</g>
<g>
</g>
<g>
</g>
<g>
</g>
<g>
</g>
<g>
</g>
<g>
</g>
<g>
</g>
<g>
</g>
<g>
</g>
<g>
</g>
<g>
</g>
<g>
</g>
<g>
</g>
</svg>
