<?xml version="1.0" encoding="iso-8859-1"?>
<!-- Generator: Adobe Illustrator 19.0.0, SVG Export Plug-In . SVG Version: 6.00 Build 0)  -->
<svg version="1.1" id="Layer_1" xmlns="http://www.w3.org/2000/svg" xmlns:xlink="http://www.w3.org/1999/xlink" x="0px" y="0px"
	 viewBox="0 0 512 512" style="enable-background:new 0 0 512 512;" xml:space="preserve">
<g>
	<g>
		<path d="M27.723,226.802v15.926c0,31.838,6.434,62.654,19.123,91.589c7.288,16.619,16.437,32.14,27.316,46.439h363.677
			c10.879-14.299,20.028-29.82,27.316-46.439c12.689-28.935,19.123-59.75,19.123-91.589v-15.926H27.723z"/>
	</g>
</g>
<g>
	<g>
		<path d="M303.779,67.542c0-12.168,2.634-17.438,6.282-24.733c4.297-8.595,9.644-19.29,9.644-38.976h-31.853
			c0,12.168-2.634,17.437-6.281,24.732c-4.298,8.595-9.645,19.29-9.645,38.977c0,19.686,5.347,30.381,9.644,38.976
			c3.648,7.294,6.282,12.565,6.282,24.733c0,12.164-2.634,17.434-6.281,24.726c-4.297,8.594-9.645,19.288-9.645,38.973h31.853
			c0-12.165,2.634-17.434,6.281-24.726c4.297-8.594,9.645-19.288,9.645-38.973c0-19.687-5.347-30.382-9.645-38.977
			C306.413,84.979,303.779,79.709,303.779,67.542z"/>
	</g>
</g>
<g>
	<g>
		<path d="M224.147,67.542c0-12.168,2.634-17.438,6.282-24.733c4.297-8.595,9.644-19.29,9.644-38.976h-31.853
			c0,12.168-2.634,17.437-6.281,24.732c-4.298,8.595-9.645,19.29-9.645,38.977c0,19.686,5.347,30.381,9.644,38.976
			c3.648,7.294,6.282,12.565,6.282,24.733c0,12.164-2.634,17.434-6.281,24.726c-4.297,8.594-9.645,19.288-9.645,38.973h31.853
			c0-12.165,2.634-17.434,6.281-24.726c4.297-8.594,9.645-19.288,9.645-38.973c0-19.687-5.347-30.382-9.645-38.977
			C226.782,84.979,224.147,79.709,224.147,67.542z"/>
	</g>
</g>
<g>
	<g>
		<polygon points="490.364,380.754 489.451,380.756 490.384,380.756 		"/>
	</g>
</g>
<g>
	<g>
		<polygon points="0,412.609 32.211,508.167 479.791,508.167 512,412.609 		"/>
	</g>
</g>
<g>
</g>
<g>
</g>
<g>
</g>
<g>
</g>
<g>
</g>
<g>
</g>
<g>
</g>
<g>
</g>
<g>
</g>
<g>
</g>
<g>
</g>
<g>
</g>
<g>
</g>
<g>
</g>
<g>
</g>
</svg>
